<?xml version="1.0" standalone="no"?><!DOCTYPE svg PUBLIC "-//W3C//DTD SVG 1.1//EN" "http://www.w3.org/Graphics/SVG/1.1/DTD/svg11.dtd"><svg t="1527832846600" class="icon" style="" viewBox="0 0 1024 1024" version="1.1" xmlns="http://www.w3.org/2000/svg" p-id="5469" xmlns:xlink="http://www.w3.org/1999/xlink" width="200" height="200"><defs><style type="text/css"></style></defs><path d="M647.35872 0l-66.69824 0 0 68.2624 0 166.1632c0 68.45696 55.49312 123.95008 123.9488 123.95008l166.16576 0 0 533.9072c0 35.008-27.904 63.38688-62.32704 63.38688L216.34944 955.66976c-34.42304 0-62.32704-28.3776-62.32704-63.38688L154.0224 131.64928c0-35.008 27.904-63.38688 62.32704-63.38688l278.98368 0L495.33312 0 188.1536 0C131.6032 0 85.76 45.8432 85.76 102.3936l0 819.14496c0 56.5504 45.8432 102.3936 102.3936 102.3936l648.49024 0c56.5504 0 102.3936-45.8432 102.3936-102.3936l0-631.2064L647.35872 0zM717.184 290.11456c-37.69984 0-68.2624-30.56256-68.2624-68.2624L648.9216 102.3936l187.72096 187.72096L717.184 290.11456zM282.01344 870.34112l460.76928 0c4.71296 0 8.53248-3.81952 8.53248-8.53248l0-51.19616c0-4.71168-3.81952-8.53248-8.53248-8.53248L282.01344 802.08c-4.71168 0-8.53248 3.8208-8.53248 8.53248l0 51.19616C273.48096 866.52288 277.30176 870.34112 282.01344 870.34112zM751.3152 657.02272c0-4.71168-3.81952-8.53248-8.53248-8.53248L282.01344 648.49024c-4.71168 0-8.53248 3.8208-8.53248 8.53248l0 51.19616c0 4.71424 3.8208 8.53248 8.53248 8.53248l460.76928 0c4.71296 0 8.53248-3.81952 8.53248-8.53248L751.3152 657.02272zM751.3152 503.43296c0-4.71168-3.81952-8.53248-8.53248-8.53248L282.01344 494.90048c-4.71168 0-8.53248 3.8208-8.53248 8.53248l0 51.19616c0 4.71168 3.8208 8.53248 8.53248 8.53248l460.76928 0c4.71296 0 8.53248-3.8208 8.53248-8.53248L751.3152 503.43296zM341.74336 136.5248 341.74336 221.85216 256.41472 221.85216 256.41472 290.11456 341.74336 290.11456 341.74336 375.44192 410.00448 375.44192 410.00448 290.11456 495.33184 290.11456 495.33184 221.85216 410.00448 221.85216 410.00448 136.5248Z" p-id="5470"></path></svg>