<?xml version="1.0" standalone="no"?><!DOCTYPE svg PUBLIC "-//W3C//DTD SVG 1.1//EN" "http://www.w3.org/Graphics/SVG/1.1/DTD/svg11.dtd"><svg t="1527833828432" class="icon" style="" viewBox="0 0 1024 1024" version="1.1" xmlns="http://www.w3.org/2000/svg" p-id="11774" xmlns:xlink="http://www.w3.org/1999/xlink" width="200" height="200"><defs><style type="text/css"></style></defs><path d="M823 240.7H682.5v-37.6c0-58-44.4-102.4-102.4-102.4H443.8c-58 0-102.4 44.4-102.4 102.4v37.6H200.9c-75 0-136.4 61.5-136.4 136.6v409.6c0 75 61.5 136.6 136.6 136.6h622c75 0 136.6-61.5 136.6-136.6V377.2c-0.1-75-61.7-136.5-136.7-136.5z m-413.4-37.5c0-20.4 13.7-34.2 34.2-34.2h136.6c20.4 0 34.2 13.7 34.2 34.2v37.6h-205v-37.6z m481.6 583.5c0 37.6-30.7 68.2-68.2 68.2H200.8c-37.6 0-68.2-30.7-68.2-68.2V578.6h106.2c0 18.8 15.3 34.2 34.2 34.2h34.2c18.8 0 34.2-15.3 34.2-34.2h341.4c0 18.8 15.3 34.2 34.2 34.2h34c18.8 0 34.2-15.3 34.2-34.2h106.2v208.1h-0.2z m0-276.3H785c0-18.8-15.3-34.2-34.2-34.2h-34.2c-18.8 0-34.2 15.3-34.2 34.2h-341c0-18.8-15.3-34.2-34.2-34.2H273c-18.8 0-34.2 15.3-34.2 34.2H132.7V377.2c0-37.6 30.7-68.2 68.2-68.2h622c37.6 0 68.2 30.7 68.2 68.2l0.1 133.2z" fill="#36a9c7" p-id="11775"></path></svg>