<?xml version="1.0" standalone="no"?><!DOCTYPE svg PUBLIC "-//W3C//DTD SVG 1.1//EN" "http://www.w3.org/Graphics/SVG/1.1/DTD/svg11.dtd"><svg t="1527831895282" class="icon" style="" viewBox="0 0 1024 1024" version="1.1" xmlns="http://www.w3.org/2000/svg" p-id="2527" xmlns:xlink="http://www.w3.org/1999/xlink" width="200" height="200"><defs><style type="text/css"></style></defs><path d="M209.92 802.133333V170.666667h546.133333v344.746666c23.893333 5.12 47.786667 13.653333 68.266667 23.893334V187.733333c0-47.786667-37.546667-85.333333-85.333333-85.333333h-512c-47.786667 0-85.333333 37.546667-85.333334 85.333333v597.333334c0 47.786667 37.546667 85.333333 85.333334 85.333333h295.253333c-13.653333-20.48-23.893333-44.373333-30.72-68.266667H209.92z m460.8-448.853333c0-6.826667-11.946667-11.946667-25.6-11.946667h-324.266667c-13.653333 0-25.6 5.12-25.6 11.946667v8.533333c0 6.826667 11.946667 13.653333 25.6 13.653334h324.266667c13.653333 0 25.6-5.12 25.6-13.653334v-8.533333zM645.12 477.866667h-324.266667c-13.653333 0-25.6 5.12-25.6 11.946666v8.533334c0 6.826667 11.946667 13.653333 25.6 13.653333h324.266667c13.653333 0 25.6-5.12 25.6-13.653333v-8.533334c0-6.826667-11.946667-11.946667-25.6-11.946666z m76.8 102.4c-93.866667 0-170.666667 76.8-170.666667 170.666666s76.8 170.666667 170.666667 170.666667 170.666667-76.8 170.666667-170.666667-76.8-170.666667-170.666667-170.666666z m0 307.2c-75.093333 0-136.533333-61.44-136.533333-136.533334s61.44-136.533333 136.533333-136.533333 136.533333 61.44 136.533333 136.533333-61.44 136.533333-136.533333 136.533334zM508.586667 614.4h-187.733334c-13.653333 0-25.6 5.12-25.6 11.946667v8.533333c0 6.826667 11.946667 13.653333 25.6 13.653333h187.733334c13.653333 0 25.6-5.12 25.6-13.653333v-8.533333c0-6.826667-11.946667-11.946667-25.6-11.946667z" fill="" p-id="2528"></path><path d="M776.533333 769.706667c1.706667 10.24 5.12 20.48 6.826667 29.013333 0 3.413333 1.706667 6.826667 1.706667 10.24 0 3.413333 1.706667 6.826667 1.706666 10.24 0 3.413333 1.706667 5.12 1.706667 6.826667v3.413333c0 3.413333 0 5.12-1.706667 5.12-1.706667 1.706667-3.413333 1.706667-5.12 1.706667h-3.413333c-1.706667 0-1.706667 0-3.413333-1.706667l-52.906667-30.72c-10.24 5.12-18.773333 10.24-25.6 15.36l-10.24 5.12c-3.413333 1.706667-6.826667 3.413333-8.533333 5.12-3.413333 1.706667-5.12 3.413333-6.826667 3.413333s-5.12 5.12-5.12 5.12c-1.706667 0-3.413333 1.706667-3.413333 0-1.706667 0-3.413333 0-3.413334-1.706666-1.706667 0-1.706667-1.706667-1.706666-3.413334v-3.413333s0-1.706667 1.706666-3.413333c0-1.706667 1.706667-5.12 1.706667-6.826667 0-3.413333 1.706667-6.826667 1.706667-10.24 1.706667-3.413333 1.706667-6.826667 3.413333-10.24 1.706667-8.533333 5.12-18.773333 6.826667-29.013333-8.533333-6.826667-15.36-13.653333-22.186667-18.773334-3.413333-1.706667-5.12-5.12-8.533333-6.826666-3.413333-1.706667-5.12-5.12-6.826667-6.826667l-5.12-5.12-1.706667-1.706667c-1.706667-1.706667-3.413333-3.413333-3.413333-5.12-1.706667-1.706667-1.706667-3.413333-1.706667-5.12 0-1.706667 1.706667-3.413333 1.706667-5.12 1.706667-1.706667 3.413333-1.706667 3.413333-1.706666l63.146667-5.12 23.893333-54.613334c0-1.706667 1.706667-3.413333 3.413334-5.12 1.706667-1.706667 3.413333-1.706667 6.826666-1.706666 1.706667 0 1.706667 0 3.413334 1.706666 1.706667 0 1.706667 1.706667 1.706666 1.706667l1.706667 1.706667s0 1.706667 1.706667 1.706666l22.186666 54.613334 63.146667 5.12c3.413333 0 5.12 1.706667 5.12 1.706666 1.706667 1.706667 1.706667 1.706667 1.706667 5.12 0 1.706667 0 3.413333-1.706667 5.12l-5.12 5.12-42.666667 39.253334m0 0z" fill="" p-id="2529"></path></svg>