<?xml version="1.0" standalone="no"?><!DOCTYPE svg PUBLIC "-//W3C//DTD SVG 1.1//EN" "http://www.w3.org/Graphics/SVG/1.1/DTD/svg11.dtd"><svg t="1527831934865" class="icon" style="" viewBox="0 0 1024 1024" version="1.1" xmlns="http://www.w3.org/2000/svg" p-id="2952" xmlns:xlink="http://www.w3.org/1999/xlink" width="200" height="200"><defs><style type="text/css"></style></defs><path d="M409.987801 684.051186l204.019294 0 0 30.370979-204.019294 0 0-30.370979Z" p-id="2953"></path><path d="M409.987801 623.334742l204.019294 0 0 30.365876-204.019294 0 0-30.365876Z" p-id="2954"></path><path d="M409.987801 744.788041l204.019294 0 0 30.370979-204.019294 0 0-30.370979Z" p-id="2955"></path><path d="M512.005103 0.010205C229.246801 0.010205 0.020411 229.236596 0.020411 511.994897c0 282.763404 229.22639 512 511.984692 512 282.763404 0 511.974487-229.241698 511.974487-512C1023.979589 229.236596 794.763404 0.010205 512.005103 0.010205zM348.7764 279.201754 348.7764 218.48531c0-4.189276 0.84704-8.189755 2.398246-11.812637 4.648515-10.91457 15.53247-18.558342 28.207455-18.558342l265.235798 0c0.612318 0 1.209328 0.15308 1.806338 0.17349 1.459358 0.09695 2.939127 0.15308 4.357664 0.438828 3.418776 0.683755 6.587522 2.04106 9.485828 3.770859 0.040821 0 0.056129 0.020411 0.07654 0.040821 2.056368 1.239944 4.010684 2.627865 5.740482 4.306637 0.020411 0.020411 0.040821 0.035719 0.07654 0.056129 1.306279 1.296073 2.495196 2.724816 3.571856 4.250508 0.040821 0.07654 0.117361 0.132669 0.17349 0.209209 3.301415 4.781184 5.225115 10.552282 5.301654 16.767311l0 0.020411 0 91.4293L348.7764 309.577835 348.7764 279.201754zM675.203189 623.334742l0 151.824277 0 10.118557 0 20.252422c0 16.782619-13.690413 30.370979-30.605701 30.370979L379.382101 835.900977c-16.89998 0-30.605701-13.583257-30.605701-30.370979l0-20.252422 0-10.118557 0-151.824277 0-60.736855 326.431892 0L675.208292 623.334742zM838.442097 653.700618c-0.020411 16.767311-13.710823 30.350568-30.626111 30.350568l-102.017301 0 0-30.365876 0-10.118557 0-50.60299 0-30.365876 0-30.370979L318.165597 532.226909l0 30.370979 0 30.365876 0 50.60299 0 10.118557 0 30.365876-102.001993 0c-16.89998 0-30.605701-13.583257-30.605701-30.365876L185.557903 370.304485c0-16.767311 13.690413-30.365876 30.605701-30.365876L807.831294 339.938609c16.915288 0 30.605701 13.583257 30.605701 30.365876L838.436994 653.700618z" p-id="2956"></path><path d="M246.759099 431.026031a5.998 5.952 0 1 0 61.211401 0 5.998 5.952 0 1 0-61.211401 0Z" p-id="2957"></path></svg>